<?xml version="1.0" standalone="no"?><!DOCTYPE svg PUBLIC "-//W3C//DTD SVG 1.1//EN" "http://www.w3.org/Graphics/SVG/1.1/DTD/svg11.dtd"><svg t="1663471803269" class="icon" viewBox="0 0 1024 1024" version="1.1" xmlns="http://www.w3.org/2000/svg" p-id="1485" xmlns:xlink="http://www.w3.org/1999/xlink" width="200" height="200"><path d="M469.333333 704a234.666667 234.666667 0 1 1 0-469.333333 234.666667 234.666667 0 0 1 0 469.333333z m0 64a298.666667 298.666667 0 1 0 0-597.333333 298.666667 298.666667 0 0 0 0 597.333333z" fill="#222222" p-id="1486"></path><path d="M660.053333 660.053333a32 32 0 0 1 45.226667 0l96 96a32 32 0 1 1-45.226667 45.226667l-96-96a32 32 0 0 1 0-45.226667z" fill="#222222" p-id="1487"></path></svg>